<svg xmlns="http://www.w3.org/2000/svg" viewBox="0 0 142.93 142.93"><defs><style>.cls-1{fill:#83c9c9;}.cls-2{fill:#fff;}</style></defs><g id="Layer_2" data-name="Layer 2"><g id="レイヤー_3" data-name="レイヤー 3"><circle class="cls-1" cx="71.46" cy="71.46" r="71.46"/><path class="cls-2" d="M106.42,43.61a35.79,35.79,0,0,0-8.5-6.82A25.23,25.23,0,0,0,87,34.13a19.3,19.3,0,0,0-14.32,5.25l-3,3L67.33,40a19.19,19.19,0,0,0-16.49-5.54,26.54,26.54,0,0,0-15,7.89A25.69,25.69,0,0,0,28.36,57,18.67,18.67,0,0,0,34,72.94l4.71,4.7-1.07,1.08a6.66,6.66,0,0,0,0,9.4l.56.56a6.65,6.65,0,0,0,5.48,1.9,4.35,4.35,0,0,0,0,.51,6.6,6.6,0,0,0,1.94,4.7l.56.56a6.6,6.6,0,0,0,4.7,1.94,6.89,6.89,0,0,0,1.21-.11v.13A6.6,6.6,0,0,0,54,103l.57.56a6.6,6.6,0,0,0,4.7,1.94h0a6.77,6.77,0,0,0,1-.08,1.09,1.09,0,0,0,0,.18,6.62,6.62,0,0,0,1.94,4.69l.57.57a6.58,6.58,0,0,0,4.7,1.93h0a6.59,6.59,0,0,0,4.7-1.93l4.9-4.9a6.55,6.55,0,0,0,1.53-2.4,6.5,6.5,0,0,0,4.49,1.78l.52,0a7.64,7.64,0,0,0,4.69-2.13,6.61,6.61,0,0,0,2.06-4.43,6.67,6.67,0,0,0,1.79.07A7.94,7.94,0,0,0,97,96.64a6.78,6.78,0,0,0,2.12-4.49c0-.16,0-.33,0-.51a6.31,6.31,0,0,0,4.7-1.84c2.46-2.37,3.41-6.72.79-9.82l4.55-4.54C118.75,65.82,114.7,52.52,106.42,43.61ZM45.17,86.22a3.15,3.15,0,0,1-2.24.92h0a3.15,3.15,0,0,1-2.24-.92l-.56-.56a3.16,3.16,0,0,1,0-4.48l7.3-7.31a3.14,3.14,0,0,1,2.24-.93h0a3.16,3.16,0,0,1,2.24.93l.57.56a3.22,3.22,0,0,1,0,4.48Zm8,7.68a3.21,3.21,0,0,1-4.48,0l-.57-.57a3.14,3.14,0,0,1-.91-2.24,3.07,3.07,0,0,1,.92-2.24L59.72,77.21a3.17,3.17,0,0,1,4.49,0l.56.56a3.17,3.17,0,0,1,0,4.49Zm8.42,7.21a3.17,3.17,0,0,1-2.24.92,3.14,3.14,0,0,1-2.24-.92l-.57-.56a3.19,3.19,0,0,1,0-4.48l8-8a3.16,3.16,0,0,1,4.48,0l.57.56a3.19,3.19,0,0,1,0,4.48Zm13.11,2.4-4.9,4.9a3.19,3.19,0,0,1-4.48,0l-.57-.57a3.14,3.14,0,0,1-.92-2.24,3.17,3.17,0,0,1,.92-2.24l4.9-4.9a3.17,3.17,0,0,1,2.24-.92h0a3.21,3.21,0,0,1,1.07.19,1.35,1.35,0,0,0,.26.33l2.25,2.28A3.19,3.19,0,0,1,74.66,103.51Zm27.52-26.06L83.77,58.16a1.74,1.74,0,1,0-2.52,2.4l20.52,21.5a3.76,3.76,0,0,1-.4,5.24c-.79.75-2.4,1.69-4.46-.4l0,0L86.54,76.2A1.74,1.74,0,1,0,84,78.62l.62.64.1.11,9.61,9.91,0,0c2.2,2.31.81,4.14.11,4.82-1.15,1.12-3.5,2-5.08.35L78.87,83.62a1.74,1.74,0,0,0-2.49,2.43l8.87,9.12a1.71,1.71,0,0,0,.42.75c2.25,2.36.92,4.13.25,4.79-1.1,1.07-3.38,1.85-5,.23l-2.52-2.53a6.39,6.39,0,0,0-1.29-1.84L76.55,96a6.59,6.59,0,0,0-3.48-1.83,6.67,6.67,0,0,0-1.08-8l-.57-.56A6.54,6.54,0,0,0,68,83.81a6.65,6.65,0,0,0-.76-8.49l-.56-.57a6.67,6.67,0,0,0-9.41,0l-.52.53A6.65,6.65,0,0,0,54.94,72l-.57-.56a6.6,6.6,0,0,0-4.69-1.94h0A6.6,6.6,0,0,0,45,71.41L41.2,75.18l-4.71-4.7a15.32,15.32,0,0,1-4.68-13.05,22.23,22.23,0,0,1,6.51-12.64c9.74-9.89,20.61-8.13,26.57-2.32l2.34,2.32L56.74,55.23c-1.93,1.92-2,4.34-.19,6.17,2.78,2.81,10.17,3.76,14.69-.69l4-3.93c1.88-1.68,3.94-1.17,7.41-.12C86.82,57.92,92,59.49,97.77,55a1.74,1.74,0,1,0-2.15-2.73c-4.33,3.42-8.05,2.3-12,1.11-3.44-1-7.34-2.22-10.78.9l0,.05-4,3.95c-3.06,3-8.24,2.27-9.77.73-.3-.31-.54-.55.18-1.26L75.12,41.85c7.42-7.23,18.7-3.37,21.09-2A32.21,32.21,0,0,1,103.87,46c10.6,11.4,8.13,21.67,2.79,27Z"/></g></g></svg>