<svg xmlns="http://www.w3.org/2000/svg" viewBox="0 0 142.93 142.93"><defs><style>.cls-1{fill:#83c9c9;}.cls-2{fill:#fff;}</style></defs><g id="Layer_2" data-name="Layer 2"><g id="レイヤー_3" data-name="レイヤー 3"><circle class="cls-1" cx="71.46" cy="71.46" r="71.46"/><path class="cls-2" d="M56,85.74a13.06,13.06,0,0,0-9.58-3,1.75,1.75,0,0,0,.32,3.49,9.6,9.6,0,0,1,10.43,8.7,1.75,1.75,0,0,0,1.74,1.59H59a1.74,1.74,0,0,0,1.58-1.9A13,13,0,0,0,56,85.74Z"/><path class="cls-2" d="M115.15,94a20.11,20.11,0,0,0-1.56-6.13l-9.65-37.17a16,16,0,0,0-6-9.14,2,2,0,0,0-.06-.48l-1.62-6.26c-1.24-4.75-4.57-7.58-8.91-7.58-5,0-9.1,3.51-9.11,7.83l0,8.19a1.86,1.86,0,0,0,0,.34,11,11,0,0,0-3.09,7.53v3.25a7.1,7.1,0,0,0-7.59.06V51.14a11,11,0,0,0-3.09-7.53,1.87,1.87,0,0,0,0-.34V35.08c0-4.32-4.09-7.83-9.11-7.83-4.35,0-7.67,2.83-8.91,7.58L44.9,41.09a2,2,0,0,0-.06.48,15.92,15.92,0,0,0-6,9.13L29.05,88.61a19.88,19.88,0,0,0,18.49,27.07c.6,0,1.21,0,1.83-.08A19.88,19.88,0,0,0,67.45,95.91a7.12,7.12,0,0,0,8,0c0,.56,0,1.12.08,1.69A19.88,19.88,0,0,0,115.15,94ZM49.91,35.71c.39-1.49,1.7-5,5.52-5,3.09,0,5.6,2,5.6,4.34v5.82a16.22,16.22,0,0,0-7.82-2,14.87,14.87,0,0,0-4.31.62Zm10.23,70.58a16.38,16.38,0,0,1-28.42-14.6,1.69,1.69,0,0,0,.31-.63l.36-1.37a16.37,16.37,0,1,1,27.75,16.6Zm.15-25.75A19.68,19.68,0,0,0,47.6,75.93c-.6,0-1.21,0-1.83.08a19.78,19.78,0,0,0-11,4.63l7.54-29c1.48-5.73,5.57-9.15,10.94-9.15,6,0,10.88,3.91,10.89,8.71l.06,33.71A19.84,19.84,0,0,0,60.29,80.54ZM71.46,93.65A3.61,3.61,0,1,1,75.07,90,3.61,3.61,0,0,1,71.46,93.65ZM75.16,84a7.09,7.09,0,0,0-7.49.06l0-22.74a1.77,1.77,0,0,0,.22-.86,3.61,3.61,0,1,1,7.22,0,1.8,1.8,0,0,0,.13.66Zm6.63-48.88c0-2.39,2.52-4.34,5.61-4.34,3.81,0,5.13,3.47,5.51,5l1,3.85a14.75,14.75,0,0,0-4.3-.62,16.29,16.29,0,0,0-7.83,2ZM78.72,51.15c0-4.8,4.89-8.71,10.89-8.71,5.37,0,9.46,3.42,10.94,9.15l7.51,28.93A19.86,19.86,0,0,0,78.66,85Zm29.21,55.14a16.32,16.32,0,0,1-11.09,5.82q-.75.06-1.5.06a16.37,16.37,0,1,1,14.94-23.08l.52,2a1.71,1.71,0,0,0,.44.79,16.76,16.76,0,0,1,.42,2.47A16.3,16.3,0,0,1,107.93,106.29Z"/><path class="cls-2" d="M94.17,82.75a1.75,1.75,0,1,0,.32,3.49,9.61,9.61,0,0,1,10.43,8.7,1.75,1.75,0,0,0,1.74,1.59h.16a1.74,1.74,0,0,0,1.59-1.9A13.13,13.13,0,0,0,94.17,82.75Z"/></g></g></svg>