<svg xmlns="http://www.w3.org/2000/svg" viewBox="0 0 142.93 142.93"><defs><style>.cls-1{fill:#83c9c9;}.cls-2{fill:#fff;}</style></defs><g id="Layer_2" data-name="Layer 2"><g id="レイヤー_3" data-name="レイヤー 3"><circle class="cls-1" cx="71.46" cy="71.46" r="71.46"/><path class="cls-2" d="M59.67,40.71c-3.65-.94-7.93,1.13-9.94,4.8a1.8,1.8,0,1,0,3.16,1.74,5.62,5.62,0,0,1,5.88-3c1.92.49,2.33,2.4,2.33,3.91s-.82,2.3-2.39,3.59c-1.77,1.46-4.18,3.45-4.18,7.61a1.81,1.81,0,1,0,3.61,0c0-2.45,1.26-3.5,2.87-4.82s3.7-3,3.7-6.38C64.71,44.29,62.83,41.52,59.67,40.71Z"/><path class="cls-2" d="M56.52,65a1.81,1.81,0,0,0-2,1.6,9.69,9.69,0,0,0-.06,1.09,1.81,1.81,0,0,0,3.62,0c0-.24,0-.48,0-.7A1.81,1.81,0,0,0,56.52,65Z"/><path class="cls-2" d="M96.17,68.44a1.8,1.8,0,0,0-2,1.59L92.3,87a1.81,1.81,0,0,0,1.59,2h.21a1.81,1.81,0,0,0,1.79-1.61l1.88-16.95A1.8,1.8,0,0,0,96.17,68.44Z"/><path class="cls-2" d="M93.93,92.9a1.81,1.81,0,0,0-2.09,1.47c-.06.35-.1.71-.13,1.08a1.81,1.81,0,0,0,1.69,1.92h.12a1.8,1.8,0,0,0,1.8-1.69c0-.24,0-.48.08-.7A1.8,1.8,0,0,0,93.93,92.9Z"/><path class="cls-2" d="M86.69,53.29a2.09,2.09,0,0,0-.36,0c-1-14.85-14.11-26.65-30.09-26.65-16.63,0-30.16,12.77-30.16,28.46S39.61,83.61,56.24,83.61h.36a27.46,27.46,0,0,0,8.59,18.11l0,12.72h0v.17a.13.13,0,0,1,0,.06s0,.08,0,.12,0,.06,0,.09,0,0,0,.08l.05.12v0l.07.15h0l.12.19,0,.05.11.13s0,0,0,0l.15.14a.1.1,0,0,1,0,0l.14.09,0,0a1.78,1.78,0,0,0,.4.17h0l.16,0h.29l.19,0h.07l.14,0,.06,0,.14,0,.06,0,.17-.08h0c5.4-2.9,7.45-4.18,10.33-6.93a31.92,31.92,0,0,0,8.44,1.13c16.63,0,30.16-12.77,30.16-28.47S103.32,53.29,86.69,53.29Zm-57,1.85c0-13.7,11.91-24.85,26.55-24.85S82.78,41.44,82.78,55.14A23.89,23.89,0,0,1,74.72,73a1.81,1.81,0,0,0-.59,1.33l0,10.49a29,29,0,0,1-7.63-5.63,1.79,1.79,0,0,0-1.27-.52,2,2,0,0,0-.54.08A28,28,0,0,1,56.24,80C41.6,80,29.69,68.85,29.69,55.14Zm57,51.46a28,28,0,0,1-8.4-1.27,1.8,1.8,0,0,0-1.81.44,29.08,29.08,0,0,1-7.64,5.63l0-10.49a1.8,1.8,0,0,0-.59-1.32,24,24,0,0,1-8-16.23,32,32,0,0,0,4.46-.88c2.89,2.75,4.94,4,10.35,6.94a1.85,1.85,0,0,0,.86.21,1.79,1.79,0,0,0,1.8-1.79l.06-12.74a27.45,27.45,0,0,0,8.59-18.23,2.2,2.2,0,0,0,.36,0c14.64,0,26.54,11.14,26.54,24.84S101.33,106.6,86.69,106.6Z"/><path class="cls-2" d="M86.35,92.9a1.8,1.8,0,0,0-2.08,1.47c-.06.35-.1.72-.13,1.08a1.81,1.81,0,0,0,1.69,1.92H86a1.81,1.81,0,0,0,1.8-1.69,5.16,5.16,0,0,1,.08-.7A1.8,1.8,0,0,0,86.35,92.9Z"/><path class="cls-2" d="M78.78,92.9a1.81,1.81,0,0,0-2.09,1.47,9.39,9.39,0,0,0-.12,1.08,1.81,1.81,0,0,0,1.69,1.92h.11a1.81,1.81,0,0,0,1.81-1.69,5.16,5.16,0,0,1,.08-.7A1.82,1.82,0,0,0,78.78,92.9Z"/></g></g></svg>