<svg xmlns="http://www.w3.org/2000/svg" viewBox="0 0 142.93 142.93"><defs><style>.cls-1{fill:#83c9c9;}.cls-2{fill:#fff;}</style></defs><g id="Layer_2" data-name="Layer 2"><g id="レイヤー_3" data-name="レイヤー 3"><circle class="cls-1" cx="71.46" cy="71.46" r="71.46"/><path class="cls-2" d="M46.78,74.13c1.4-.23,3.33-1.21,4.62-4.56l2.22-4.32-.2,15.83L49.23,91.74a1.63,1.63,0,0,0-.12.53,6.69,6.69,0,0,0,5.42,7.22,7.07,7.07,0,0,0,1.21.11,6.67,6.67,0,0,0,3.68-1.11,8.44,8.44,0,0,0,3.38-4.88l3.47-11.93a1.75,1.75,0,0,0,.07-.51V74.91l7.54.4-.11,7.87v0c0,3.64,3.51,5.82,6.9,5.82a6.64,6.64,0,0,0,4.15-1.35,5.49,5.49,0,0,0,2-4.47v-15c0-3-2.51-6.69-5.73-6.85L73.36,61l0-3L85.63,50.1a6.87,6.87,0,0,0,3.22-4,5.67,5.67,0,0,0-3.9-7,6.2,6.2,0,0,0-4.76.71c-1.21.69-2.44,1.49-3.74,2.34-4.48,2.92-9.57,6.24-14.68,5a1.65,1.65,0,0,0-.31,0,16,16,0,0,1-2.23-.43,14.66,14.66,0,0,0-6-.56c-1.8.33-4.13,1.5-5.13,5.2l-6.88,16a.59.59,0,0,0,0,.08,4.86,4.86,0,0,0,.92,4.74A5,5,0,0,0,46.78,74.13Zm-2.24-5.36L51.45,52.7a1.14,1.14,0,0,0,.09-.26c.84-3.26,2.74-3.17,6.88-2.19a17.72,17.72,0,0,0,2.69.51,13.12,13.12,0,0,0,2.89.32c5.39,0,10.3-3.21,14.38-5.87,1.25-.81,2.43-1.59,3.55-2.22,1.55-.88,2.78-.34,3.31.59s.42,2.3-1.45,3.44l0,0L70.58,55.47A1.81,1.81,0,0,0,69.76,57l.07,5.69a1.79,1.79,0,0,0,1.68,1.78l9.43.48c1,0,2.35,1.87,2.35,3.25v15c0,1.93-1.64,2.22-2.62,2.22a4.39,4.39,0,0,1-2.47-.74,1.81,1.81,0,0,1-.88-1.47l.14-9.59a1.79,1.79,0,0,0-1.68-1.82l-11.12-.59a1.76,1.76,0,0,0-1.32.49,1.82,1.82,0,0,0-.55,1.3v7.9L59.39,92.6c-.84,2.88-2.73,3.62-4.23,3.34a3,3,0,0,1-2.52-3.15l4.2-10.69a2,2,0,0,0,.13-.64l.29-23.74a1.77,1.77,0,0,0-3.35-.85L48.2,68a1.67,1.67,0,0,0-.08.2c-.52,1.38-1.24,2.28-1.91,2.39a1.56,1.56,0,0,1-1.32-.65A1.38,1.38,0,0,1,44.54,68.77Z"/><path class="cls-2" d="M64.9,45.43a10.3,10.3,0,1,0-10.17-10.3A10.25,10.25,0,0,0,64.9,45.43Zm0-17a6.7,6.7,0,1,1-6.61,6.7A6.67,6.67,0,0,1,64.9,28.43Z"/><path class="cls-2" d="M115.89,81.74c0-.06,0-.12,0-.18a.84.84,0,0,0-.05-.17c0-.06,0-.12,0-.17s-.06-.1-.08-.15,0-.11-.08-.16l-.12-.13a.64.64,0,0,0-.1-.13,1.42,1.42,0,0,0-.13-.12l-.13-.1a.83.83,0,0,0-.16-.09l-.14-.08a1.27,1.27,0,0,0-.18-.06l-.16,0-.18,0-.17,0L92.73,80a1.73,1.73,0,0,0-1.27.53,1.8,1.8,0,0,0-.52,1.3l.13,9.08-19.6-.12h0a1.79,1.79,0,0,0-1.26.54,1.81,1.81,0,0,0-.51,1.29l.13,9.08-19.6-.11a1.79,1.79,0,0,0-1.79,1.82l.13,9.1H28.8a1.8,1.8,0,0,0,0,3.59h85.33a1.79,1.79,0,0,0,1.78-1.79V81.91S115.89,81.8,115.89,81.74ZM91.1,94.5v18H73.4V99.82a2,2,0,0,0-.06-.44l-.07-5ZM52,105.19l17.83.1v7.21H52.12Zm42.64,7.31V89.3a1.86,1.86,0,0,0-.05-.42l-.08-5.28,17.83.1v28.8Z"/></g></g></svg>