<svg xmlns="http://www.w3.org/2000/svg" viewBox="0 0 142.93 142.93"><defs><style>.cls-1{fill:#83c9c9;}.cls-2{fill:#fff;}</style></defs><g id="Layer_2" data-name="Layer 2"><g id="レイヤー_3" data-name="レイヤー 3"><circle class="cls-1" cx="71.46" cy="71.46" r="71.46"/><path class="cls-2" d="M96.78,69A20.79,20.79,0,0,0,91,53.26a27.1,27.1,0,0,0-39-.06A21,21,0,0,0,46.14,69c.73,11.2,4.65,14.23,8.1,16.91,2.61,2,4.68,3.63,5.16,9.09a1.61,1.61,0,0,0-.22,1.12,1.64,1.64,0,0,0,1.6,1.36h.08v2.91l-.35.06a1.63,1.63,0,0,0,.27,3.23h.08v2.91l-.35.06a1.63,1.63,0,0,0,.27,3.23l.28,0,1.81-.31a1.42,1.42,0,0,0,.14.23,9.85,9.85,0,0,0,7.22,3.76c.34,0,.68.05,1,.05a10.59,10.59,0,0,0,5.53-1.49,6.87,6.87,0,0,0,3.45-5,1.83,1.83,0,0,0,0-.47l2.22-.38a1.63,1.63,0,0,0-.35-3.23V100l.35-.06a1.63,1.63,0,0,0-.35-3.23V93.82l.35,0A1.64,1.64,0,0,0,83.77,92a1.6,1.6,0,0,0,.49-.72c1-2.92,2.69-4.25,4.63-5.79C92.23,82.87,96,79.86,96.78,69ZM70.51,110.25a7.37,7.37,0,0,1-3.85-1.4l10.23-1.75C76.31,109.09,73.54,110.51,70.51,110.25Zm8.3-6.79L64.11,106v-2.89l14.7-2.52Zm0-6.19-14.7,2.52V96.9l14.7-2.52Zm8-14.29c-2.14,1.71-4.35,3.46-5.67,7.27a1.72,1.72,0,0,0-.09.44L62.55,93.86c-.75-6.24-3.58-8.43-6.32-10.55C53,80.83,50,78.5,49.39,68.76a17.69,17.69,0,0,1,5-13.33,23.85,23.85,0,0,1,34.24,0,17.57,17.57,0,0,1,4.91,13.27C92.86,78.2,90,80.52,86.86,83Z"/><path class="cls-2" d="M72.2,39.82a1.62,1.62,0,0,0,1.62-1.62V31a1.63,1.63,0,1,0-3.25,0V38.2A1.63,1.63,0,0,0,72.2,39.82Z"/><path class="cls-2" d="M97.09,39.79,92,44.86a1.63,1.63,0,0,0,2.3,2.31l5.07-5.08a1.63,1.63,0,1,0-2.3-2.3Z"/><path class="cls-2" d="M110.08,67.26H102.9a1.63,1.63,0,0,0,0,3.26h7.18a1.63,1.63,0,0,0,0-3.26Z"/><path class="cls-2" d="M93.28,89.45a1.63,1.63,0,1,0-2.3,2.3l5.08,5.08a1.59,1.59,0,0,0,1.15.47,1.62,1.62,0,0,0,1.15-.47,1.64,1.64,0,0,0,0-2.3Z"/><path class="cls-2" d="M49.64,47.17A1.63,1.63,0,0,0,52,44.86l-5.08-5.07a1.63,1.63,0,1,0-2.3,2.3Z"/><path class="cls-2" d="M40,65.8H32.85a1.63,1.63,0,0,0,0,3.26H40a1.63,1.63,0,0,0,0-3.26Z"/><path class="cls-2" d="M48.61,89.45l-5.08,5.08a1.63,1.63,0,1,0,2.31,2.3l5.07-5.08a1.62,1.62,0,0,0,0-2.3A1.64,1.64,0,0,0,48.61,89.45Z"/><path class="cls-2" d="M87.58,61.44a1.62,1.62,0,0,0-1.88-1.12l-3.93.8c-.19-.24-.39-.48-.59-.71l1.56-3.7A1.62,1.62,0,0,0,82,54.64l-4.44-2.38a1.64,1.64,0,0,0-2.13.54l-2.2,3.35q-.46-.06-.93-.09l-1.5-3.72a1.62,1.62,0,0,0-2-.94L64,52.85a1.64,1.64,0,0,0-1.13,1.89l.81,3.93c-.24.19-.48.38-.71.59l-3.7-1.57a1.63,1.63,0,0,0-2.07.73l-2.38,4.44A1.63,1.63,0,0,0,55.37,65l3.35,2.21c0,.3-.07.61-.09.92l-3.72,1.51a1.63,1.63,0,0,0-.95,2l1.46,4.82a1.63,1.63,0,0,0,1.89,1.12l3.93-.81c.18.25.38.49.58.72l-1.56,3.7A1.63,1.63,0,0,0,61,83.23l4.44,2.37a1.62,1.62,0,0,0,2.13-.54l2.21-3.35a9.24,9.24,0,0,0,.92.1l1.5,3.72a1.64,1.64,0,0,0,1.51,1,1.49,1.49,0,0,0,.47-.07L79,85a1.64,1.64,0,0,0,1.12-1.89l-.81-3.93c.25-.19.49-.38.72-.59l3.69,1.57a1.63,1.63,0,0,0,2.07-.73L88.17,75a1.63,1.63,0,0,0-.54-2.13l-3.35-2.21c0-.31.07-.61.09-.92l3.72-1.51a1.63,1.63,0,0,0,1-2Zm-5.42,5.69a1.64,1.64,0,0,0-1,1.55,9.69,9.69,0,0,1-.24,2.4,1.64,1.64,0,0,0,.69,1.72l3,2-1,1.82-3.31-1.41a1.65,1.65,0,0,0-1.82.38,9.14,9.14,0,0,1-1.86,1.53,1.64,1.64,0,0,0-.73,1.7l.73,3.53-2,.6L73.3,79.59a1.62,1.62,0,0,0-1.51-1h0a9.61,9.61,0,0,1-2.39-.24,1.63,1.63,0,0,0-1.72.7l-2,3-1.82-1,1.4-3.32a1.62,1.62,0,0,0-.38-1.82,9.67,9.67,0,0,1-1.52-1.85,1.62,1.62,0,0,0-1.71-.73l-3.52.72-.6-2,3.34-1.35a1.63,1.63,0,0,0,1-1.56,9.65,9.65,0,0,1,.24-2.39,1.62,1.62,0,0,0-.69-1.72l-3-2,1-1.82,3.31,1.41a1.65,1.65,0,0,0,1.82-.38,9.42,9.42,0,0,1,1.86-1.53,1.62,1.62,0,0,0,.73-1.7l-.73-3.53,2-.6,1.35,3.34a1.63,1.63,0,0,0,1.51,1h0a10,10,0,0,1,2.39.23,1.63,1.63,0,0,0,1.73-.69l2-3,1.81,1-1.4,3.32a1.63,1.63,0,0,0,.38,1.81,9.66,9.66,0,0,1,1.52,1.86,1.62,1.62,0,0,0,1.71.73l3.53-.72.59,2Z"/><path class="cls-2" d="M69.77,63.19a5.7,5.7,0,0,0-4,7.48,6,6,0,0,0,2.84,3.68,5.49,5.49,0,0,0,2.62.64,6.94,6.94,0,0,0,2-.31,6,6,0,0,0-3.47-11.49Zm2.53,8.37a2.75,2.75,0,1,1-1.59-5.25h0a3.81,3.81,0,0,1,1.07-.17,2.2,2.2,0,0,1,1.08.25,2.89,2.89,0,0,1,1.27,1.75A2.48,2.48,0,0,1,72.3,71.56Z"/></g></g></svg>